<svg width="21" height="18" viewBox="0 0 21 18" fill="none" xmlns="http://www.w3.org/2000/svg">
<path d="M8.25419 14.4695V14.4695C7.88874 15.4534 8.61648 16.5 9.66604 16.5H16.2897C16.8372 16.5 17.1109 16.5 17.3145 16.4662C18.7018 16.2355 19.626 14.9064 19.3591 13.5256C19.32 13.323 19.2247 13.0664 19.034 12.5531V12.5531C18.8753 12.1259 18.796 11.9123 18.7037 11.7259C18.0951 10.4959 16.8984 9.6639 15.5336 9.52157C15.3267 9.5 15.0988 9.5 14.6431 9.5H12.8575C12.6445 9.5 12.538 9.5 12.4321 9.50561C12.1657 9.51974 11.9013 9.56049 11.643 9.62725C11.5404 9.65377 11.4389 9.68585 11.2357 9.75V9.75M6.58008 5C5.47551 5 4.58008 4.10457 4.58008 3C4.58008 1.89543 5.47551 1 6.58008 1C7.68465 1 8.58008 1.89543 8.58008 3C8.58008 4.10457 7.68465 5 6.58008 5ZM14.0801 7C12.9755 7 12.0801 6.10457 12.0801 5C12.0801 3.89543 12.9755 3 14.0801 3C15.1846 3 16.0801 3.89543 16.0801 5C16.0801 6.10457 15.1846 7 14.0801 7ZM4.21032 14.5H8.78968C9.33717 14.5 9.61092 14.5 9.8145 14.4662C11.2018 14.2355 12.126 12.9064 11.8591 11.5256C11.82 11.323 11.7247 11.0664 11.534 10.5531V10.5531C11.3753 10.1259 11.296 9.91227 11.2037 9.72585C10.5951 8.49595 9.39845 7.6639 8.03358 7.52157C7.8267 7.5 7.59883 7.5 7.14307 7.5H5.85693C5.40117 7.5 5.1733 7.5 4.96642 7.52157C3.60155 7.6639 2.40492 8.49595 1.79627 9.72585C1.70401 9.91227 1.62467 10.1259 1.46598 10.5531V10.5531C1.27535 11.0664 1.18003 11.323 1.14087 11.5256C0.874011 12.9064 1.79819 14.2355 3.1855 14.4662C3.38908 14.5 3.66283 14.5 4.21032 14.5Z" stroke="#FBFBFD" stroke-width="1.5" stroke-linejoin="round"/>
</svg>
